<svg width="454" height="98" viewBox="0 0 454 98" fill="none" xmlns="http://www.w3.org/2000/svg">
<path fill-rule="evenodd" clip-rule="evenodd" d="M11.9603 0C18.3866 0 23.5788 5.19644 23.5788 11.612C23.5788 18.0275 18.3716 23.2087 11.9603 23.2087C5.54906 23.2087 0.341797 18.0123 0.341797 11.612C0.341797 5.19644 5.54906 0 11.9603 0Z" fill="#2C55A2"/>
<path fill-rule="evenodd" clip-rule="evenodd" d="M11.6185 27.6333C18.0448 27.6333 23.237 32.8297 23.237 39.2453C23.237 45.6608 18.0298 50.8573 11.6185 50.8573C5.20727 50.8573 0 45.6608 0 39.2453C0 32.845 5.20727 27.6333 11.6185 27.6333Z" fill="#2C55A2"/>
<path fill-rule="evenodd" clip-rule="evenodd" d="M38.7435 27.4673C45.1548 27.4673 50.3621 32.6637 50.3621 39.0793C50.3621 45.4948 45.1548 50.6912 38.7435 50.6912C32.3323 50.6912 27.125 45.4948 27.125 39.0793C27.125 32.6637 32.3323 27.4673 38.7435 27.4673Z" fill="#2C55A2"/>
<path fill-rule="evenodd" clip-rule="evenodd" d="M38.7435 54.9624C45.1548 54.9624 50.3621 60.1588 50.3621 66.5744C50.3621 72.9747 45.1548 78.1711 38.7435 78.1711C32.3323 78.1711 27.125 72.9747 27.125 66.5744C27.125 60.1588 32.3323 54.9624 38.7435 54.9624Z" fill="#2C55A2"/>
<path fill-rule="evenodd" clip-rule="evenodd" d="M65.8841 54.9624C72.2954 54.9624 77.5027 60.1588 77.5027 66.5744C77.5027 72.9747 72.2954 78.1711 65.8841 78.1711C59.4729 78.1711 54.2656 72.9747 54.2656 66.5744C54.2656 60.1588 59.4729 54.9624 65.8841 54.9624Z" fill="#2C55A2"/>
<path fill-rule="evenodd" clip-rule="evenodd" d="M11.6185 55.2646C18.0448 55.2646 23.237 60.4611 23.237 66.8766C23.237 73.2769 18.0298 78.4734 11.6185 78.4734C5.20727 78.4734 0 73.2769 0 66.8766C0 60.4611 5.20727 55.2646 11.6185 55.2646Z" fill="#2C55A2"/>
<path d="M109.404 0.616211H92.5332V76.0026H109.404V0.616211Z" fill="#2C55A2"/>
<path d="M136.819 22.6138C132.877 22.6138 129.25 23.0557 125.91 23.9548C122.569 24.8386 119.665 25.9968 117.212 27.4292L120.267 39.285C122.163 38.2945 124.254 37.5021 126.542 36.9383C128.829 36.3744 131.191 36.0849 133.659 36.0849C139.919 36.0849 143.049 38.9345 143.049 44.6186V46.3254C141.288 46.4016 139.272 46.4625 136.985 46.5387C134.698 46.6149 132.546 46.7216 130.499 46.8587C125.022 47.2854 120.778 48.7331 117.799 51.1865C114.804 53.64 113.314 57.2973 113.314 62.128C113.314 64.1853 113.646 66.1358 114.323 67.9492C114.985 69.7627 115.933 71.3475 117.167 72.7038C118.401 74.06 119.92 75.1267 121.756 75.9039C123.577 76.6811 125.654 77.0773 127.971 77.0773C131.267 77.0773 134.306 76.4525 137.09 75.2029C139.859 73.9533 142.056 72.5209 143.681 70.8751V75.9953H159.918V45.4568C159.918 37.8373 157.871 32.1228 153.808 28.3131C149.73 24.5186 144.072 22.6138 136.819 22.6138ZM143.049 63.4995C141.86 64.2157 140.536 64.7796 139.091 65.2063C137.647 65.6329 136.127 65.8463 134.502 65.8463C132.877 65.8463 131.643 65.4501 130.755 64.6729C129.882 63.8957 129.431 62.8595 129.431 61.5794C129.431 58.7298 131.146 57.0992 134.592 56.6725C135.856 56.5354 137.15 56.3677 138.49 56.1849C139.829 56.002 141.334 55.8496 143.019 55.7125V63.4995H143.049Z" fill="#2C55A2"/>
<path d="M211.17 30.1328C209.229 27.7556 206.896 25.8964 204.158 24.5859C201.419 23.2754 198.364 22.6048 194.978 22.6048C191.818 22.6048 189.2 23.0925 187.123 24.0525C185.047 25.0126 183.271 26.2469 181.796 27.7403V0.615234H164.928V71.8262C168.088 73.472 171.594 74.7521 175.416 75.6664C179.253 76.596 183.271 77.0531 187.485 77.0531C192.48 77.0531 196.829 76.3217 200.561 74.8587C204.293 73.3958 207.378 71.43 209.846 68.9308C212.298 66.4469 214.149 63.5058 215.383 60.1228C216.617 56.7398 217.234 53.1587 217.234 49.3947C217.234 45.4783 216.708 41.8819 215.654 38.6056C214.586 35.3597 213.096 32.5253 211.17 30.1328ZM199.613 55.3988C199.117 57.1817 198.379 58.7513 197.401 60.0923C196.423 61.4486 195.114 62.5153 193.504 63.2925C191.879 64.0697 189.982 64.4659 187.816 64.4659C186.687 64.4659 185.604 64.3592 184.55 64.1459C183.497 63.9325 182.579 63.643 181.811 63.2925V38.5294C184.204 36.6093 186.973 35.6493 190.148 35.6493C193.669 35.6493 196.242 36.9141 197.898 39.4437C199.553 41.9734 200.381 45.3716 200.381 49.6385C200.35 51.6957 200.11 53.6158 199.613 55.3988Z" fill="#2C55A2"/>
<path d="M248.29 49.9976C246.5 48.748 244.694 47.7423 242.858 46.9498C241.022 46.1727 239.653 45.5631 238.75 45.1364C237.772 44.6335 236.704 44.1459 235.59 43.643C234.461 43.1401 233.423 42.5915 232.475 41.982C231.527 41.3724 230.745 40.7019 230.158 39.9552C229.556 39.2085 229.255 38.2942 229.255 37.2275C229.255 34.9569 230.098 33.3873 231.783 32.5339C233.468 31.6806 235.545 31.2539 237.998 31.2539C240.24 31.2539 242.482 31.5129 244.694 32.0615C246.906 32.5949 249.028 33.3568 251.074 34.3626L252.654 27.1089C250.623 26.0422 248.336 25.2041 245.808 24.5945C243.28 23.985 240.676 23.6802 238.013 23.6802C235.695 23.6802 233.438 23.9392 231.271 24.4726C229.089 25.006 227.178 25.8441 225.523 26.987C223.868 28.1299 222.528 29.5928 221.52 31.3605C220.497 33.1435 219.985 35.2769 219.985 37.7608C219.985 40.0314 220.452 41.9972 221.415 43.6278C222.363 45.2736 223.597 46.706 225.102 47.9556C226.606 49.2052 228.277 50.2719 230.113 51.1558C231.933 52.0396 233.769 52.8473 235.59 53.5635C236.929 54.1273 238.208 54.7064 239.442 55.2702C240.676 55.8341 241.745 56.4589 242.663 57.1446C243.58 57.8151 244.318 58.6075 244.875 59.4914C245.431 60.3905 245.717 61.3962 245.717 62.5392C245.717 64.9621 244.679 66.7146 242.602 67.827C240.526 68.9394 237.983 69.488 234.958 69.488C232.069 69.488 229.466 69.168 227.103 68.528C224.741 67.888 222.664 67.1717 220.828 66.3946L219.248 73.9683C220.166 74.395 221.264 74.8064 222.574 75.2026C223.868 75.5988 225.222 75.9341 226.637 76.2236C228.036 76.5131 229.45 76.7265 230.85 76.8636C232.249 77.0008 233.589 77.077 234.853 77.077C237.727 77.077 240.405 76.696 242.858 75.9493C245.311 75.2026 247.448 74.1511 249.238 72.7949C251.029 71.4386 252.444 69.8081 253.452 67.888C254.475 65.9679 254.987 63.7887 254.987 61.381C254.987 58.7447 254.325 56.5046 252.985 54.6607C251.646 52.7863 250.081 51.2472 248.29 49.9976Z" fill="#2C55A2"/>
<path d="M282.849 31.3731C284.88 31.3731 286.942 31.5864 289.018 32.0131C291.095 32.4398 293.036 33.0493 294.872 33.8265L296.241 26.39C294.481 25.5214 292.374 24.8356 289.921 24.3327C287.453 23.8299 284.82 23.5708 282.006 23.5708C277.792 23.5708 274.091 24.287 270.931 25.7042C267.771 27.1367 265.137 29.072 263.015 31.5407C260.909 33.9942 259.329 36.859 258.275 40.1049C257.222 43.3508 256.695 46.7643 256.695 50.3149C256.695 53.8808 257.222 57.2791 258.275 60.5249C259.329 63.7708 260.909 66.6205 263.015 69.0891C265.122 71.5426 267.755 73.4932 270.931 74.9256C274.091 76.3428 277.777 77.059 282.006 77.059C284.398 77.059 286.927 76.8 289.59 76.2971C292.253 75.7942 294.481 75.1085 296.226 74.2399L294.857 66.8033C293.021 67.5805 291.08 68.1901 289.003 68.6167C286.927 69.0434 284.88 69.2568 282.833 69.2568C277.145 69.2568 272.932 67.5043 270.238 63.9841C267.53 60.464 266.175 55.9076 266.175 50.2997C266.175 44.6918 267.53 40.1354 270.238 36.6152C272.947 33.1255 277.145 31.3731 282.849 31.3731Z" fill="#2C55A2"/>
<path d="M451.861 39.3762C450.883 36.176 449.513 33.4025 447.753 31.0405C445.992 28.6937 443.885 26.8803 441.433 25.6003C438.965 24.3202 436.226 23.6802 433.201 23.6802C429.199 23.6802 425.933 24.4574 423.39 26.027C420.862 27.5966 418.786 29.4862 417.175 31.6806V24.7469H408.102V97.9999H417.597V75.6598C419.071 76.0865 420.606 76.437 422.186 76.696C423.766 76.9551 425.572 77.077 427.619 77.077C431.275 77.077 434.661 76.4674 437.791 75.2636C440.921 74.0597 443.645 72.292 445.962 69.9757C448.279 67.6594 450.085 64.8097 451.394 61.442C452.688 58.0589 453.351 54.234 453.351 49.9671C453.336 46.0965 452.854 42.5763 451.861 39.3762ZM439.16 64.2611C436.03 67.5984 431.832 69.2595 426.565 69.2595C424.88 69.2595 423.255 69.1528 421.72 68.9395C420.17 68.7261 418.801 68.3756 417.612 67.8727V38.3856C418.951 36.6789 420.697 35.1093 422.879 33.6464C425.061 32.1834 427.694 31.4672 430.794 31.4672C432.976 31.4672 434.887 31.9244 436.542 32.8539C438.197 33.7835 439.567 35.0483 440.65 36.6941C441.734 38.3247 442.546 40.2752 443.073 42.5458C443.6 44.8164 443.87 47.2699 443.87 49.8909C443.855 56.1388 442.29 60.9238 439.16 64.2611Z" fill="#2C55A2"/>
<path d="M322.258 23.6392C307.692 23.6392 295.895 35.6016 295.895 50.3376C295.895 65.0887 307.707 77.036 322.258 77.036C336.825 77.036 348.622 65.0735 348.622 50.3376C348.637 35.6016 336.825 23.6392 322.258 23.6392ZM322.258 68.6546C312.282 68.6546 304.186 60.4561 304.186 50.3528C304.186 40.2495 312.282 32.051 322.258 32.051C332.235 32.051 340.331 40.2495 340.331 50.3528C340.331 60.4561 332.25 68.6546 322.258 68.6546Z" fill="#2C55A2"/>
<path d="M378.012 23.6392C363.446 23.6392 351.648 35.6016 351.648 50.3376C351.648 65.0887 363.461 77.036 378.012 77.036C392.579 77.036 404.376 65.0735 404.376 50.3376C404.391 35.6016 392.579 23.6392 378.012 23.6392ZM378.012 68.6546C368.036 68.6546 359.94 60.4561 359.94 50.3528C359.94 40.2495 368.036 32.051 378.012 32.051C387.989 32.051 396.085 40.2495 396.085 50.3528C396.085 60.4561 388.004 68.6546 378.012 68.6546Z" fill="#2C55A2"/>
<path fill-rule="evenodd" clip-rule="evenodd" d="M65.8841 27.4673C72.2954 27.4673 77.5027 32.6637 77.5027 39.0793C77.5027 45.4948 72.2954 50.6912 65.8841 50.6912C59.4729 50.6912 54.2656 45.4948 54.2656 39.0793C54.2656 32.6637 59.4729 27.4673 65.8841 27.4673Z" fill="#FEC81E"/>
<path fill-rule="evenodd" clip-rule="evenodd" d="M38.7435 0C45.1548 0 50.3621 5.19644 50.3621 11.612C50.3621 18.0275 45.1548 23.2087 38.7435 23.2087C32.3323 23.2087 27.125 18.0123 27.125 11.612C27.125 5.19644 32.3323 0 38.7435 0Z" fill="#D8422E"/>
<path fill-rule="evenodd" clip-rule="evenodd" d="M65.5697 0C71.981 0 77.1882 5.19644 77.1882 11.612C77.1882 18.0275 71.981 23.2087 65.5697 23.2087C59.1584 23.2087 53.9512 18.0123 53.9512 11.612C53.9512 5.19644 59.1434 0 65.5697 0Z" fill="#41A048"/>
</svg>
