<svg width="32" height="32" viewBox="0 0 32 32" fill="none" xmlns="http://www.w3.org/2000/svg">
<path d="M14.5325 2.80054L27.7311 4.6872L29.6165 17.8872L17.3605 30.1432C17.1104 30.3932 16.7714 30.5336 16.4178 30.5336C16.0643 30.5336 15.7252 30.3932 15.4751 30.1432L2.27515 16.9432C2.02519 16.6932 1.88477 16.3541 1.88477 16.0005C1.88477 15.647 2.02519 15.3079 2.27515 15.0579L14.5325 2.80054ZM18.3031 14.1152C18.5508 14.3628 18.8448 14.5592 19.1684 14.6931C19.492 14.8271 19.8388 14.896 20.189 14.8959C20.5392 14.8959 20.8859 14.8268 21.2094 14.6928C21.533 14.5587 21.8269 14.3622 22.0745 14.1145C22.3221 13.8669 22.5184 13.5729 22.6524 13.2493C22.7864 12.9257 22.8553 12.5789 22.8552 12.2287C22.8552 11.8785 22.7861 11.5318 22.652 11.2083C22.518 10.8847 22.3215 10.5908 22.0738 10.3432C21.8261 10.0956 21.5321 9.89924 21.2086 9.76528C20.885 9.63132 20.5382 9.56241 20.188 9.56247C19.4807 9.56259 18.8025 9.84367 18.3025 10.3439C17.8025 10.8441 17.5216 11.5224 17.5217 12.2297C17.5219 12.9369 17.8029 13.6152 18.3031 14.1152Z" fill="#3360AD"/>
</svg>
